#!OML:ASF I:\golf\golf\golf 2\Subject 1\2002-09-07\Subject1.ASF
:FULLY-SPECIFIED
:DEGREES
340
root 1.46926 16.2668 -4.21813 56.216 7.47553 3.26082
lowerback 34.026 9.0967 3.56849
upperback 17.8116 12.032 8.99399
thorax 1.16073 5.49052 4.00216
lowerneck -9.82225 -11.3218 -6.53789
upperneck -2.26789 -14.6767 -3.67721
head 1.0688 -7.46364 -0.678235
rclavicle 1.49486e-013 -2.8625e-014
rhumerus 59.1342 -20.1699 -42.523
rradius 24.772
rwrist 6.72043
rhand -42.7326 21.0948
rfingers 7.12502
rthumb -15.6008 -8.29604
lclavicle 1.49486e-013 -2.8625e-014
lhumerus 3.34678 -65.5222 61.8688
lradius 88.0138
lwrist -29.9886
lhand -55.7703 29.7639
lfingers 7.12502
lthumb -28.1167 57.6761
rfemur -91.1477 -22.6925 28.6558
rtibia 58.5621
rfoot -14.9452 -9.07554
rtoes -20.5517
lfemur -95.1198 0.0166364 -25.4926
ltibia 51.9097
lfoot -8.94775 -19.1415
ltoes -1.44524
341
root 1.47192 16.2671 -4.21804 56.2303 7.47318 3.29737
lowerback 34.0171 9.09278 3.57862
upperback 17.784 12.0333 9.00023
thorax 1.13384 5.49169 4.00087
lowerneck -9.86334 -11.3091 -6.39098
upperneck -2.3141 -14.6789 -3.85407
head 1.03546 -7.46792 -0.751469
rclavicle -7.31528e-014 4.77083e-014
rhumerus 59.0638 -20.2183 -42.4859
rradius 24.8837
rwrist 6.82036
rhand -42.2996 20.6431
rfingers 7.12502
rthumb -15.1838 -8.77981
lclavicle -7.31528e-014 4.77083e-014
lhumerus 3.61258 -65.5353 61.6561
lradius 87.9246
lwrist -29.8773
lhand -56.0186 29.2832
lfingers 7.12502
lthumb -28.354 57.1562
rfemur -91.153 -22.7228 28.6034
rtibia 58.5731
rfoot -14.9347 -9.05122
rtoes -20.316
lfemur -95.1098 -0.0330577 -25.5121
ltibia 51.8825
lfoot -8.86378 -19.0788
ltoes -1.71145
342
root 1.46907 16.2738 -4.21922 56.1065 7.41044 3.29829
lowerback 34.2205 9.13147 3.51544
upperback 17.7728 12.0703 8.99942
thorax 1.03614 5.50206 3.99627
lowerneck -9.93691 -11.2665 -6.22856
upperneck -2.31962 -14.6358 -3.97511
head 1.02446 -7.45026 -0.812513
rclavicle -5.725e-014 -4.77083e-015
rhumerus 59.068 -20.3033 -42.6725
rradius 24.9965
rwrist 6.94311
rhand -41.7396 20.0901
rfingers 7.12502
rthumb -14.6443 -9.37283
lclavicle -5.725e-014 -4.77083e-015
lhumerus 3.84401 -65.5201 61.4638
lradius 87.8591
lwrist -29.8471
lhand -56.201 28.8654
lfingers 7.12502
lthumb -28.5283 56.7093
rfemur -90.9492 -22.6691 28.4276
rtibia 58.5447
rfoot -14.8795 -9.09344
rtoes -20.3313
lfemur -94.9426 0.0237007 -25.5927
ltibia 51.8286
lfoot -8.78638 -19.0731
ltoes -1.98277
343
root 1.47884 16.2302 -4.24094 56.9953 7.68305 3.42186
lowerback 32.9408 8.95058 3.77602
upperback 17.7029 11.8843 8.95011
thorax 1.48676 5.45331 4.00507
lowerneck -9.96277 -11.2713 -6.29755
upperneck -2.28121 -14.6278 -3.8546
head 1.05612 -7.44563 -0.77057
rclavicle 5.08889e-014 -6.67916e-014
rhumerus 58.9876 -20.3337 -42.7355
rradius 25.1354
rwrist 6.99499
rhand -41.1548 19.2834
rfingers 7.12502
rthumb -14.0808 -10.2196
lclavicle 5.08889e-014 -6.67916e-014
lhumerus 3.92652 -65.4885 61.4166
lradius 87.9099
lwrist -29.7826
lhand -55.9349 28.7592
lfingers 7.12502
lthumb -28.274 56.6455
rfemur -92.1664 -22.7335 28.8733
rtibia 58.6277
rfoot -14.6665 -9.16068
rtoes -20.5792
lfemur -96.0327 -0.403266 -25.3451
ltibia 51.8105
lfoot -8.49717 -18.9807
ltoes -2.0842
344
root 1.4799 16.2494 -4.23912 56.7789 7.68391 3.40207
lowerback 33.1911 8.95262 3.82571
upperback 17.6974 11.9105 8.97657
thorax 1.39283 5.46335 3.97311
lowerneck -9.87515 -11.313 -6.26296
upperneck -2.36728 -14.7034 -3.80912
head 1.01438 -7.48038 -0.755674
rclavicle -2.8625e-014 3.65764e-014
rhumerus 58.7123 -20.2649 -42.4506
rradius 25.3352
rwrist 6.74186
rhand -40.8407 18.3968
rfingers 7.12502
rthumb -13.7781 -11.1269
lclavicle -2.8625e-014 3.65764e-014
lhumerus 4.07143 -65.5207 61.2518
lradius 87.9734
lwrist -29.6249
lhand -55.7287 28.672
lfingers 7.12502
lthumb -28.077 56.5907
rfemur -91.8394 -22.722 28.7217
rtibia 58.6261
rfoot -14.7837 -9.18834
rtoes -20.3726
lfemur -95.7228 -0.369736 -25.3318
ltibia 51.7456
lfoot -8.53134 -18.9784
ltoes -2.00085
345
root 1.48209 16.2449 -4.24529 56.9219 7.6676 3.46885
lowerback 32.8886 8.94952 3.77607
upperback 17.6792 11.886 8.96084
thorax 1.47683 5.45537 4.01808
lowerneck -9.7855 -11.3149 -5.95165
upperneck -2.52613 -14.7658 -3.9814
head 0.910927 -7.51197 -0.839048
rclavicle -8.90555e-014 -1.43125e-014
rhumerus 58.4915 -20.2063 -42.3642
rradius 25.5186
rwrist 6.47678
rhand -40.6453 17.763
rfingers 7.12502
rthumb -13.5898 -11.7735
lclavicle -8.90555e-014 -1.43125e-014
lhumerus 4.38442 -65.5919 60.9509
lradius 87.8686
lwrist -29.5099
lhand -55.4487 28.6388
lfingers 7.12502
lthumb -27.8092 56.6012
rfemur -91.9922 -22.7295 28.6828
rtibia 58.531
rfoot -14.6806 -9.17135
rtoes -20.144
lfemur -95.8397 -0.460033 -25.39
ltibia 51.6172
lfoot -8.48559 -18.9203
ltoes -2.57789
346
root 1.48667 16.2167 -4.26041 57.4465 7.6639 3.61477
lowerback 32.0607 8.88225 3.70579
upperback 17.6218 11.7624 8.87449
thorax 1.7294 5.41085 4.08307
lowerneck -9.70026 -11.2744 -5.71532
upperneck -2.60853 -14.753 -4.12999
head 0.840977 -7.506 -0.905421
rclavicle -9.22361e-014 3.65764e-014
rhumerus 58.4703 -20.2039 -42.8797
rradius 25.6438
rwrist 6.64682
rhand -40.4155 17.469
rfingers 7.12502
rthumb -13.3683 -12.0822
lclavicle -9.22361e-014 3.65764e-014
lhumerus 4.63128 -65.5965 60.7567
lradius 87.6962
lwrist -29.412
lhand -55.0828 28.619
lfingers 7.12502
lthumb -27.4593 56.6374
rfemur -92.71 -22.7615 28.7818
rtibia 58.5326
rfoot -14.4541 -9.095
rtoes -19.7707
lfemur -96.4611 -0.69885 -25.4668
ltibia 51.5447
lfoot -8.40179 -18.8307
ltoes -3.50199
347
root 1.45817 16.3525 -4.21575 55.1089 6.93366 3.22851
lowerback 35.084 9.40082 2.93177
upperback 17.7934 12.2615 9.02943
thorax 0.628018 5.54496 4.1559
lowerneck -9.59998 -11.325 -6.33403
upperneck -2.36182 -14.7275 -3.37216
head 1.01075 -7.48222 -0.600634
rclavicle 2.8625e-014 -6.36111e-015
rhumerus 58.4237 -20.182 -43.4515
rradius 25.7926
rwrist 6.85333
rhand -40.2476 17.2168
rfingers 7.12502
rthumb -13.2064 -12.3449
lclavicle 2.8625e-014 -6.36111e-015
lhumerus 4.74539 -65.5938 60.6282
lradius 87.5969
lwrist -29.24
lhand -55.0806 28.3265
lfingers 7.12502
lthumb -27.4573 56.3452
rfemur -89.3557 -22.3291 27.3775
rtibia 58.2247
rfoot -14.9371 -9.04475
rtoes -18.9715
lfemur -93.5176 0.500979 -26.1024
ltibia 51.3485
lfoot -8.98607 -19.0936
ltoes -3.29823
348
root 1.47153 16.2826 -4.25112 56.3478 7.262 3.44589
lowerback 33.3597 9.03631 3.23803
upperback 17.6072 11.8757 8.84444
thorax 1.14943 5.41892 4.10193
lowerneck -9.67516 -11.3123 -6.31522
upperneck -2.04054 -14.6802 -3.47329
head 1.11934 -7.46621 -0.650189
rclavicle 4.77083e-014 -3.33958e-014
rhumerus 58.4394 -20.0415 -44.0498
rradius 25.9457
rwrist 6.86433
rhand -40.4167 16.9679
rfingers 7.12502
rthumb -13.3694 -12.5831
lclavicle 4.77083e-014 -3.33958e-014
lhumerus 4.6831 -65.5086 60.6018
lradius 87.534
lwrist -28.9998
lhand -55.1922 28.0596
lfingers 7.12502
lthumb -27.564 56.0613
rfemur -91.0828 -22.5014 27.9494
rtibia 58.2518
rfoot -14.6279 -8.98767
rtoes -18.4048
lfemur -95.0519 -0.178438 -25.7372
ltibia 51.3097
lfoot -8.48895 -18.842
ltoes -3.23918
349
root 1.48138 16.2841 -4.25525 56.2223 7.29104 3.6383
lowerback 33.4033 8.8151 3.33322
upperback 17.5387 11.6463 8.75123
thorax 1.11113 5.32178 4.01953
lowerneck -10.4031 -11.1734 -5.24373
upperneck -0.94069 -14.4764 -5.05149
head 1.40549 -7.42559 -1.36266
rclavicle -4.13472e-014 1.59028e-015
rhumerus 58.4971 -19.8876 -44.919
rradius 26.0972
rwrist 6.87581
rhand -40.6994 16.8153
rfingers 7.12502
rthumb -13.6419 -12.7176
lclavicle -4.13472e-014 1.59028e-015
lhumerus 4.70046 -65.4201 60.5593
lradius 87.4545
lwrist -28.6541
lhand -55.1945 27.9439
lfingers 7.12502
lthumb -27.5662 55.9452
rfemur -90.9008 -22.7444 27.7847
rtibia 58.1352
rfoot -14.5566 -8.96104
rtoes -18.361
lfemur -94.814 -0.472695 -25.645
ltibia 51.2136
lfoot -8.40698 -18.6259
ltoes -3.29787
350
root 1.46275 16.3453 -4.24146 55.208 6.90302 3.45467
lowerback 34.5609 9.06174 2.85004
upperback 17.5867 11.8412 8.74938
thorax 0.654756 5.36833 4.0762
lowerneck -9.31872 -11.0774 -5.90699
upperneck -2.43299 -14.4645 -3.7862
head 0.875371 -7.34998 -0.748083
rclavicle -2.22639e-014 -2.22639e-014
rhumerus 58.4203 -19.7976 -45.8406
rradius 26.335
rwrist 6.83214
rhand -40.8316 16.6575
rfingers 7.12502
rthumb -13.7693 -12.8669
lclavicle -2.22639e-014 -2.22639e-014
lhumerus 4.98921 -65.3864 60.2254
lradius 87.3654
lwrist -28.3211
lhand -55.4954 27.5648
lfingers 7.12502
lthumb -27.8539 55.5199
rfemur -89.5145 -22.4732 27.1773
rtibia 58.08
rfoot -14.6865 -8.97606
rtoes -18.6931
lfemur -93.5723 0.111889 -25.921
ltibia 51.1918
lfoot -8.67573 -18.745
ltoes -3.25889
351
root 1.46872 16.3113 -4.26336 55.8007 7.03331 3.58459
lowerback 33.5146 8.87762 2.93877
upperback 17.4792 11.6277 8.64004
thorax 0.956964 5.29618 4.08389
lowerneck -8.18596 -10.7943 -5.6924
upperneck -4.14392 -14.3213 -3.73467
head 0.128615 -7.22436 -0.610995
rclavicle -6.67916e-014 -7.31528e-014
rhumerus 58.14 -19.6173 -46.5155
rradius 26.6948
rwrist 6.76174
rhand -41.0958 16.4102
rfingers 7.12502
rthumb -14.024 -13.0967
lclavicle -6.67916e-014 -7.31528e-014
lhumerus 5.0607 -65.37 60.1767
lradius 87.2899
lwrist -28.1076
lhand -55.8309 26.8355
lfingers 7.12502
lthumb -28.1746 54.7382
rfemur -90.3945 -22.5698 27.4289
rtibia 58.0958
rfoot -14.4156 -8.88819
rtoes -18.7371
lfemur -94.315 -0.228596 -25.7575
ltibia 51.1807
lfoot -8.46868 -18.6153
ltoes -3.60241
352
root 1.46888 16.3127 -4.27417 55.757 7.07841 3.60287
lowerback 33.3337 8.76289 2.93899
upperback 17.3678 11.4995 8.5952
thorax 0.916365 5.24149 4.08352
lowerneck -8.14393 -10.8452 -5.43164
upperneck -3.66655 -14.389 -4.18873
head 0.221477 -7.2712 -0.798414
rclavicle 1.43125e-013 9.54166e-015
rhumerus 57.6453 -19.1855 -46.8132
rradius 27.1599
rwrist 6.198
rhand -41.5234 16.1412
rfingers 7.12502
rthumb -14.4359 -13.3367
lclavicle 1.43125e-013 9.54166e-015
lhumerus 4.84627 -65.3305 60.3992
lradius 87.187
lwrist -27.9012
lhand -55.6258 26.1942
lfingers 7.12502
lthumb -27.9786 54.129
rfemur -90.3408 -22.5692 27.3656
rtibia 58.0186
rfoot -14.4194 -8.87296
rtoes -18.3534
lfemur -94.2712 -0.308694 -25.6425
ltibia 51.1339
lfoot -8.44057 -18.4992
ltoes -3.76916
